#!OML:ASF X:\für Bonn\!DataBase\2005_08_10_Bjorn_Final\c3d\bjorn.ASF
:FULLY-SPECIFIED
:DEGREES
152
root 2.09076 18.5209 3.14973 -174.314 -22.5161 174.631
lowerback 4.28784 -2.52809 -3.61621
upperback 11.9528 -4.65694 -1.82948
thorax 10.4389 -3.09795 -0.283229
lowerneck -8.20394 2.43868 -8.4287
upperneck 4.2464 4.18612 -4.27526
head 2.70684 1.66001 0.264592
rclavicle 2.22639e-014 5.28767e-014
rhumerus -41.1848 -19.0278 -84.3082
rradius 36.4374
rwrist -3.14463
rhand -12.9514 19.0705
rfingers 7.12502
rthumb 13.14 -10.4955
lclavicle 2.22639e-014 5.28767e-014
lhumerus -31.2568 -49.8786 81.7781
lradius 54.955
lwrist -1.67549
lhand -47.8135 -25.3731
lfingers 7.12502
lthumb -20.4892 3.56575
rfemur -31.6446 -6.32755 12.565
rtibia 50.3062
rfoot -20.976 -0.324467
rtoes -19.9698
lfemur -0.690288 5.34392 -15.9462
ltibia 41.838
lfoot -16.332 9.44632
ltoes -33.9768
153
root 2.08779 18.4492 3.23108 -174.036 -23.1595 174.502
lowerback 4.46533 -2.51265 -3.75538
upperback 12.2159 -4.69573 -1.82183
thorax 10.6531 -3.15626 -0.210964
lowerneck -8.4798 2.12537 -8.53698
upperneck 3.91505 3.77731 -3.70265
head 2.64233 1.49896 0.453404
rclavicle -2.00773e-014 1.31198e-014
rhumerus -40.5936 -19.6335 -84.8585
rradius 35.8654
rwrist -3.54231
rhand -12.8427 18.8166
rfingers 7.12502
rthumb 13.2448 -10.7426
lclavicle -2.00773e-014 1.31198e-014
lhumerus -29.1973 -50.2802 80.7938
lradius 53.8751
lwrist -2.57061
lhand -47.879 -25.7749
lfingers 7.12502
lthumb -20.5521 3.15715
rfemur -32.6035 -6.5349 12.3659
rtibia 51.3398
rfoot -21.3152 -0.778365
rtoes -20.169
lfemur -0.566985 5.44045 -15.8888
ltibia 41.3275
lfoot -17.0815 9.13181
ltoes -35.0637
154
root 2.08423 18.3744 3.31243 -173.799 -23.7831 174.401
lowerback 4.68073 -2.48797 -3.88426
upperback 12.4767 -4.7273 -1.79568
thorax 10.8442 -3.21236 -0.121276
lowerneck -8.70103 1.80884 -8.54909
upperneck 3.54817 3.34855 -3.25473
head 2.56315 1.32354 0.582675
rclavicle 5.1684e-014 1.47101e-014
rhumerus -39.9978 -20.1785 -85.3604
rradius 35.3598
rwrist -3.76324
rhand -12.4784 18.365
rfingers 7.12502
rthumb 13.596 -11.171
lclavicle 5.1684e-014 1.47101e-014
lhumerus -27.1475 -50.6042 79.7703
lradius 52.9287
lwrist -3.5419
lhand -47.7147 -26.0918
lfingers 7.12502
lthumb -20.3943 2.85724
rfemur -33.5523 -6.78849 12.193
rtibia 52.4099
rfoot -21.6423 -1.15872
rtoes -20.3571
lfemur -0.512369 5.59923 -15.813
ltibia 40.8874
lfoot -17.8969 8.86069
ltoes -36.3168
155
root 2.08032 18.2946 3.39393 -173.573 -24.3861 174.28
lowerback 4.94139 -2.45072 -4.02673
upperback 12.7211 -4.74363 -1.77184
thorax 10.991 -3.2623 -0.0208592
lowerneck -8.93249 1.47677 -8.45629
upperneck 3.24057 2.89484 -2.90271
head 2.51179 1.12821 0.662006
rclavicle 1.51076e-014 -1.90833e-014
rhumerus -39.4954 -20.618 -85.8387
rradius 34.9596
rwrist -3.89562
rhand -12.1309 17.9308
rfingers 7.12502
rthumb 13.9308 -11.5825
lclavicle 1.51076e-014 -1.90833e-014
lhumerus -25.1325 -50.8527 78.7329
lradius 52.1102
lwrist -4.62887
lhand -47.5554 -26.3703
lfingers 7.12502
lthumb -20.2411 2.59501
rfemur -34.5035 -7.08379 12.0004
rtibia 53.5104
rfoot -21.9551 -1.49252
rtoes -20.5222
lfemur -0.54014 5.80851 -15.7728
ltibia 40.5321
lfoot -18.7577 8.45097
ltoes -37.0025
156
root 2.07571 18.2124 3.47527 -173.318 -24.9331 174.159
lowerback 5.20049 -2.3952 -4.14723
upperback 12.9329 -4.72878 -1.76138
thorax 11.0968 -3.29126 0.0578184
lowerneck -9.16492 1.14657 -8.35439
upperneck 2.95017 2.44228 -2.50056
head 2.46762 0.933963 0.755814
rclavicle 1.55052e-014 1.19271e-014
rhumerus -39.0528 -20.9072 -86.3645
rradius 34.6276
rwrist -4.1632
rhand -11.8516 17.4871
rfingers 7.12502
rthumb 14.2 -12.0075
lclavicle 1.55052e-014 1.19271e-014
lhumerus -23.1591 -50.9979 77.6748
lradius 51.3911
lwrist -5.89613
lhand -47.615 -26.9082
lfingers 7.12502
lthumb -20.2984 2.05106
rfemur -35.5017 -7.40806 11.8071
rtibia 54.5882
rfoot -22.1895 -1.74165
rtoes -20.7581
lfemur -0.676492 6.09812 -15.7579
ltibia 40.2222
lfoot -19.6253 7.79483
ltoes -37.0901
157
root 2.06908 18.129 3.55552 -173.075 -25.4103 174.068
lowerback 5.45169 -2.32088 -4.23567
upperback 13.1158 -4.68273 -1.75295
thorax 11.1693 -3.29891 0.120472
lowerneck -9.29874 0.831144 -8.15332
upperneck 2.64847 1.98995 -2.17343
head 2.40398 0.737987 0.806004
rclavicle 2.32578e-014 -4.77083e-015
rhumerus -38.5935 -21.1602 -86.8137
rradius 34.2293
rwrist -4.28433
rhand -11.4709 17.0815
rfingers 7.12502
rthumb 14.5668 -12.387
lclavicle 2.32578e-014 -4.77083e-015
lhumerus -21.2796 -51.045 76.6713
lradius 50.7567
lwrist -7.28249
lhand -47.9282 -27.4451
lfingers 7.12502
lthumb -20.5994 1.48187
rfemur -36.5185 -7.74056 11.643
rtibia 55.6663
rfoot -22.3819 -1.93746
rtoes -21.0982
lfemur -0.908778 6.44531 -15.7349
ltibia 40.0485
lfoot -20.5783 6.95451
ltoes -36.8176
158
root 2.06182 18.0631 3.63328 -172.935 -25.8111 173.963
lowerback 5.83059 -2.20395 -4.343
upperback 13.2783 -4.58667 -1.7651
thorax 11.1389 -3.2837 0.185654
lowerneck -9.20032 0.526395 -7.85345
upperneck 2.23143 1.51515 -1.90478
head 2.26061 0.534165 0.815076
rclavicle -3.3197e-014 3.49861e-014
rhumerus -38.0998 -21.4399 -87.1631
rradius 33.6667
rwrist -4.10096
rhand -10.9958 16.6953
rfingers 7.12502
rthumb 15.0246 -12.7396
lclavicle -3.3197e-014 3.49861e-014
lhumerus -19.5449 -50.9756 75.7513
lradius 50.2432
lwrist -8.9306
lhand -48.3151 -27.5988
lfingers 7.12502
lthumb -20.9712 1.28748
rfemur -37.3478 -8.03656 11.4473
rtibia 56.6641
rfoot -22.5798 -2.0735
rtoes -21.381
lfemur -1.09723 6.82388 -15.7449
ltibia 39.9975
lfoot -21.6309 6.15316
ltoes -36.6262
